<?xml version="1.0" encoding="utf-8"?>
<!DOCTYPE svg PUBLIC "-//W3C//DTD SVG 1.0//EN" "http://www.w3.org/TR/2001/REC-SVG-20010904/DTD/svg10.dtd">
<svg version="1.0" xmlns="http://www.w3.org/2000/svg" width="1024px" height="1024px" viewBox="0 0 1024 1024" preserveAspectRatio="xMidYMid meet">
 <g fill="#2b886c">
  <path d="M408.2 743.5 c-69.7 -8.4 -126.8 -41.7 -170.8 -99.5 -4.7 -6.2 -13.4 -18.8 -13.4 -19.5 0 -0.1 -2.5 -4.5 -5.6 -9.6 -4.9 -8.1 -10.8 -19.8 -14.6 -28.9 -0.6 -1.4 -1.5 -3.4 -2 -4.4 -2.5 -4.8 -11.8 -33.1 -11.8 -35.9 0 -2.7 4.8 -4.8 16.5 -7.3 6.6 -1.4 18.1 -3.2 20 -3.2 6.5 0.1 19 -1.3 19.3 -2.2 1 -3 3.7 -0.2 7.6 8.3 2.4 5 6.9 13.6 10 19.1 3.1 5.4 5.6 10.2 5.6 10.6 0 0.5 0.4 1 0.8 1.2 0.4 0.2 2.4 3 4.4 6.3 3.9 6.4 16.8 24.7 21.5 30.5 35.1 43.3 62.8 66.3 105.3 87.4 5.2 2.6 10.8 5.4 12.3 6.2 1.6 0.8 3.3 1.4 3.8 1.4 0.5 0 2.8 0.9 5.2 1.9 2.3 1.1 6.7 2.7 9.7 3.6 3 1 6.9 2.3 8.5 3 7 2.9 40.3 9.7 54.5 11 4.1 0.4 7.9 1 8.5 1.3 1.5 0.9 18.5 0.9 18.5 0 0 -0.4 1.6 -0.8 3.6 -0.8 4.6 0 27.4 -3.5 38.9 -6 4.9 -1.1 9.9 -2 11.2 -2 1.3 0 2.3 -0.4 2.3 -1 0 -0.5 1.5 -1 3.4 -1 1.9 0 3.6 -0.4 3.8 -0.8 0.4 -0.9 21 -8.2 23.3 -8.2 0.8 0 1.5 -0.4 1.5 -1 0 -0.5 1.1 -1 2.5 -1 1.4 0 2.5 -0.4 2.5 -0.8 0 -1.1 4.5 -3.2 6.9 -3.2 2.6 0 14.2 -6 14.8 -7.6 0.3 -0.8 1.5 -1.4 2.7 -1.4 2.4 0 12.6 -6.5 12.6 -8 0 -0.6 0.7 -1 1.5 -1 0.8 0 1.5 -0.4 1.5 -1 0 -0.5 0.7 -1 1.5 -1 0.8 0 1.5 -0.4 1.5 -1 0 -0.5 0.7 -1 1.5 -1 0.8 0 1.5 -0.4 1.5 -0.9 0 -0.5 1.4 -1.1 3.1 -1.5 1.9 -0.4 3.3 -1.3 3.6 -2.6 0.3 -1.1 1.4 -2 2.5 -2 1.1 0 2.2 -0.9 2.5 -2 0.3 -1.1 1.4 -2 2.5 -2 1.1 0 2.2 -0.8 2.5 -1.9 0.3 -1.1 1.5 -2.1 2.7 -2.3 1.1 -0.2 2.5 -1.3 3.1 -2.5 0.5 -1.3 1.6 -2.3 2.3 -2.3 1.6 0 15.2 -12.8 15.2 -14.2 0 -1.2 2.6 -3.8 3.8 -3.8 1.4 0 5.2 -4.5 5.2 -6.3 0 -0.9 0.5 -1.7 1.2 -1.7 1.9 0 6.8 -5.2 6.8 -7.2 0 -1 0.6 -1.8 1.4 -1.8 1.7 0 8.6 -8.3 8.6 -10.4 0 -0.9 0.7 -1.6 1.5 -1.6 0.8 0 1.5 -0.9 1.5 -2 0 -1.1 0.7 -2 1.5 -2 0.8 0 1.5 -0.9 1.5 -2 0 -1.1 0.7 -2 1.5 -2 0.8 0 1.5 -0.9 1.5 -2 0 -1.1 0.5 -2 1.1 -2 1.6 0 3.8 -3.1 3.9 -5.2 0 -1 0.6 -1.8 1.3 -1.8 1.4 0 3.1 -2.7 4.2 -6.7 0.4 -1.3 1.1 -2.3 1.6 -2.3 0.5 0 0.9 -0.7 0.9 -1.5 0 -0.8 0.5 -1.5 1 -1.5 0.6 0 1 -0.7 1 -1.5 0 -0.8 0.7 -1.5 1.5 -1.5 0.9 0 1.5 -0.9 1.5 -2.5 0 -1.4 0.4 -2.5 0.9 -2.5 0.5 0 1.2 -1.1 1.5 -2.5 0.4 -1.4 1.3 -2.5 2.1 -2.5 0.9 0 1.5 -0.9 1.5 -2.4 0 -1.2 1.1 -3.5 2.5 -5 1.4 -1.5 2.5 -3.3 2.5 -4.1 0 -2 4.2 -10.5 5.2 -10.5 0.4 0 0.8 -0.6 0.8 -1.4 0 -0.7 1.1 -3.9 2.5 -7 1.9 -4.3 3 -5.6 4.6 -5.6 1.5 0 1.9 0.5 1.5 1.5 -0.3 0.9 0 1.8 0.7 2 1.4 0.5 16.8 1.6 21.5 1.5 1.8 0 3.8 0.2 4.4 0.6 0.6 0.4 3.2 0.9 5.7 1.1 2.5 0.2 5.3 0.6 6.1 1 1.8 0.8 1.6 0.7 6.5 1.7 2.2 0.4 4.4 1.1 5 1.4 0.5 0.4 1.6 0.7 2.4 0.9 0.8 0.1 2 0.8 2.8 1.6 1.2 1.2 1.2 2.2 -0.3 7.3 -0.9 3.2 -2.1 6.5 -2.6 7.1 -0.6 0.7 -0.7 1.3 -0.3 1.3 0.4 0 0.2 0.7 -0.5 1.5 -0.7 0.8 -0.9 1.5 -0.5 1.5 0.4 0 0.2 0.7 -0.5 1.5 -0.7 0.8 -0.9 1.5 -0.5 1.5 0.4 0 0.2 0.7 -0.5 1.5 -0.7 0.8 -0.9 1.5 -0.5 1.5 0.4 0 0.2 0.7 -0.5 1.5 -0.7 0.8 -0.9 1.5 -0.6 1.5 0.4 0 0.1 1.2 -0.7 2.8 -0.8 1.5 -2 4.1 -2.7 5.7 -0.7 1.7 -1.8 4.4 -2.4 6 -1.7 4.1 -11.4 23.6 -12.6 25.5 -0.6 0.8 -3.2 5.1 -5.8 9.5 -26.8 45.3 -62.9 79.1 -107.7 101.1 -31.8 15.5 -58.4 22.1 -93.5 23.1 -22.6 0.6 -39.7 -1 -58.8 -5.7 -12.1 -2.9 -26 -7.5 -27.7 -9.1 -1.2 -1.2 -7.2 -1.2 -8 0 -0.6 1 -18.7 7.2 -28 9.5 -18.9 4.8 -51.7 6.6 -72.3 4.1z"/>
 </g>
 <g fill="#1a6c64">
  <path d="M505 729.2 c-1.9 -0.2 -4 -0.8 -4.7 -1.3 -0.6 -0.6 -2.3 -0.7 -3.7 -0.3 -1.4 0.3 -3.4 0.3 -4.3 -0.1 -1.8 -0.8 -6.5 -1.4 -11.5 -1.5 -1.5 -0.1 -3 -0.5 -3.3 -1 -0.4 -0.6 -1.7 -0.7 -3 -0.4 -1.2 0.3 -2.6 0.1 -2.9 -0.4 -0.3 -0.6 -1.5 -0.8 -2.5 -0.5 -1 0.3 -2.2 0 -2.5 -0.6 -0.4 -0.5 -1.3 -0.8 -2.1 -0.4 -0.9 0.3 -2.1 0 -2.9 -0.6 -0.7 -0.6 -1.6 -0.8 -1.9 -0.4 -0.4 0.3 -1.2 0.1 -1.9 -0.4 -0.7 -0.6 -2 -1.1 -2.8 -1.1 -0.8 0 -2.6 -0.3 -4 -0.7 -1.4 -0.3 -3.2 -0.8 -4 -1 -0.8 -0.2 -1.5 -0.4 -1.5 -0.5 0 -0.1 -1.3 -0.4 -3 -0.6 -1.6 -0.3 -3.5 -1 -4.2 -1.6 -0.7 -0.6 -1.3 -0.7 -1.3 -0.3 0 0.4 -0.7 0.2 -1.5 -0.5 -0.8 -0.7 -1.5 -0.9 -1.5 -0.5 0 0.4 -0.7 0.2 -1.5 -0.5 -0.8 -0.7 -1.5 -0.9 -1.5 -0.5 0 0.4 -0.7 0.2 -1.5 -0.5 -0.8 -0.7 -1.5 -0.9 -1.5 -0.5 0 0.4 -0.7 0.2 -1.5 -0.5 -0.8 -0.7 -1.5 -1 -1.5 -0.6 0 0.3 -1.7 -0.3 -3.9 -1.4 -2.1 -1.2 -4.8 -2.3 -6.1 -2.5 -1.2 -0.2 -2.8 -0.9 -3.5 -1.5 -0.7 -0.6 -2.1 -1.3 -3.1 -1.5 -1.1 -0.2 -7.5 -3.3 -14.3 -6.9 -6.8 -3.6 -12.5 -6.6 -12.7 -6.6 -1.3 0 -28.1 -18.5 -36.7 -25.2 -15.2 -12 -33.2 -30.7 -52 -53.8 -4.7 -5.8 -17.6 -24.1 -21.5 -30.5 -2 -3.3 -4 -6.1 -4.4 -6.3 -0.4 -0.2 -0.8 -0.7 -0.8 -1.2 0 -0.4 -2.5 -5.2 -5.6 -10.6 -6.1 -10.6 -14.5 -27.9 -14.9 -30.4 -0.1 -0.8 -2.1 -7 -4.3 -13.8 -10.2 -30 -14.8 -57.2 -15.4 -90.4 -0.1 -7 0.1 -13.1 0.6 -13.5 0.4 -0.4 10.1 -0.8 21.4 -0.7 16.7 0 23.2 0.5 33.7 2.3 13.5 2.3 28.7 6.4 40.6 10.8 3.9 1.4 7.2 2.3 7.5 2 0.3 -0.2 0 -5.8 -0.5 -12.3 -3.5 -39.1 1.9 -84.9 13.3 -114 2.1 -5.5 2.5 -5.9 5.2 -5.6 5.7 0.7 21.1 6.5 35 13.2 14.9 7.2 33.3 19 44.8 28.7 11.2 9.4 10.3 9.1 11.6 4.1 3.2 -12.3 18.8 -47.7 26.4 -59.7 12.4 -19.6 17.9 -26.7 31.4 -40.5 11.1 -11.3 14.5 -13.9 17.1 -13.1 3.1 1 24.5 23 32 33 15 19.9 32.4 54.5 38.7 76.9 1 3.7 2.4 7 3 7.3 0.6 0.2 5.8 -3.4 11.6 -8 5.7 -4.6 14.6 -11.2 19.8 -14.6 17.7 -11.7 52 -27.1 60.4 -27.1 3.1 0 3.2 0.2 5.9 8.2 5.8 18 8.9 31.8 11.1 49.9 2.3 18.9 2.9 40.6 1.7 57.8 -0.6 8.5 -0.8 15.8 -0.3 16.3 0.4 0.4 3.4 -0.3 6.7 -1.7 10.8 -4.3 29.2 -9.4 41.7 -11.5 20.7 -3.6 51 -4.2 54.1 -1.1 1.7 1.7 -0.8 40.8 -3.8 58.1 -2.8 16.1 -7.2 32.6 -13.5 50 -2.3 6.3 -4.2 12.3 -4.3 13.3 -0.1 0.9 -0.5 1.7 -1 1.7 -0.4 0 -0.5 0.5 -0.2 1 0.3 0.6 0.1 1 -0.5 1 -0.6 0 -0.8 0.5 -0.5 1 0.3 0.6 0.2 1 -0.4 1 -0.6 0 -0.8 0.7 -0.5 1.5 0.4 0.8 -0.1 1.7 -1 2.1 -0.9 0.3 -1.3 1 -1 1.5 0.3 0.5 0 0.9 -0.6 0.9 -0.6 0 -0.8 0.5 -0.5 1 0.3 0.6 0.1 1 -0.5 1 -0.6 0 -0.8 0.5 -0.5 1 0.3 0.6 0.1 1 -0.5 1 -0.6 0 -0.8 0.5 -0.5 1 0.3 0.6 0.2 1 -0.4 1 -0.6 0 -0.8 0.6 -0.5 1.3 0.2 0.7 -0.6 2.5 -2 4 -1.3 1.4 -2.1 2.8 -1.8 3.1 0.3 0.3 0 0.6 -0.7 0.6 -0.7 0 -1 0.4 -0.7 0.9 0.9 1.4 -0.5 4.1 -2.1 4.1 -0.8 0 -1.1 0.5 -0.8 1 0.3 0.6 0.1 1 -0.5 1 -0.6 0 -0.8 0.5 -0.5 1 0.3 0.6 -0.1 1.3 -0.9 1.6 -0.9 0.3 -1.4 1 -1.1 1.4 0.8 1.3 -0.6 4 -2.1 4 -0.8 0 -1.1 0.6 -0.8 1.5 0.4 0.9 0 1.5 -1 1.5 -1 0 -1.3 0.6 -1 1.5 0.4 1 0 1.5 -1.1 1.5 -0.9 0 -1.3 0.5 -1 1 0.3 0.6 0.1 1 -0.6 1 -0.7 0 -0.9 0.3 -0.6 0.6 1 1 -2.5 6.4 -4.1 6.4 -0.7 0 -1 0.4 -0.7 1 0.8 1.2 -2.6 5.9 -4.2 6 -0.7 0 -1 0.7 -0.7 1.5 0.4 0.9 -0.2 1.8 -1.6 2.3 -1.2 0.4 -2.1 1.1 -2.1 1.5 0.3 2.1 0 2.7 -1.4 2.7 -0.8 0 -1.4 0.3 -1.4 0.8 0.3 2 -0.3 3.2 -1.7 3.2 -0.8 0 -1.3 0.4 -1 0.9 0.8 1.2 -7.3 11.1 -9 11.1 -0.9 0 -1.2 0.5 -0.8 1.1 0.7 1.3 -5.4 7.9 -7.4 7.9 -0.7 0 -1 0.5 -0.6 1.1 0.6 1.1 -4.3 6.9 -5.9 6.9 -1.1 0 -3.7 2.6 -3.7 3.8 0 1.6 -13.8 14.2 -15.6 14.2 -0.9 0 -1.4 0.3 -1.1 0.7 1 1 -2.3 4.3 -4.3 4.3 -1 0 -2 0.9 -2.3 2 -0.3 1.3 -1.4 2 -2.8 2 -1.2 0 -1.9 0.3 -1.6 0.7 1 1 -1.3 3.3 -3.3 3.3 -1 0 -2 0.9 -2.3 2 -0.3 1.3 -1.7 2.2 -3.6 2.6 -1.7 0.4 -3.1 1 -3.1 1.5 0 0.5 -0.7 0.9 -1.5 0.9 -0.8 0 -1.5 0.5 -1.5 1 0 0.6 -0.7 1 -1.5 1 -0.8 0 -1.5 0.5 -1.5 1 0 0.6 -0.7 1 -1.7 1 -0.9 0 -1.3 0.3 -1 0.7 1 1 -10.4 8.3 -12.9 8.3 -1.2 0 -2.4 0.6 -2.7 1.4 -0.6 1.6 -12.2 7.6 -14.8 7.6 -2.4 0 -6.9 2.1 -6.9 3.2 0 0.4 -1.1 0.8 -2.4 0.8 -1.3 0 -2.7 0.7 -3 1.6 -0.3 0.8 -1 1.3 -1.5 0.9 -1.2 -0.7 -22.3 6.4 -23.2 7.8 -0.4 0.5 -2 0.9 -3.5 0.9 -1.6 0 -3.2 0.5 -3.6 1.1 -0.3 0.5 -2 1 -3.7 0.9 -1.7 0 -3.1 0.3 -3.1 0.8 0 0.4 -0.9 0.6 -2 0.3 -1.1 -0.3 -2 -0.1 -2 0.4 0 0.6 -1.1 0.8 -2.5 0.5 -1.4 -0.2 -2.5 0 -2.5 0.5 0 0.6 -1.1 0.8 -2.5 0.5 -1.5 -0.2 -2.5 0 -2.5 0.7 0 0.7 -0.9 0.9 -2.5 0.5 -1.6 -0.4 -2.5 -0.2 -2.5 0.5 0 0.8 -1.1 1 -3.5 0.5 -2.3 -0.4 -3.5 -0.2 -3.5 0.5 0 0.6 -1.1 0.8 -3 0.5 -1.8 -0.4 -3 -0.2 -3 0.4 0 0.7 -1.3 0.9 -3.5 0.5 -2.4 -0.4 -3.5 -0.2 -3.5 0.6 0 0.9 -1.3 1 -4.6 0.5 -2.9 -0.4 -4.9 -0.3 -5.3 0.4 -0.8 1.3 -7.8 1.8 -10.8 0.8 -1.2 -0.4 -3 -0.3 -4 0.1 -1 0.5 -3.4 0.7 -5.3 0.5z m20.5 -15.5 c34.6 -28.3 73 -71.3 100.7 -112.5 10.3 -15.4 24.8 -39.2 24.8 -40.8 0 -0.8 0.5 -1.4 1 -1.4 1.4 0 15.5 -29.2 21 -43.5 4.9 -12.6 10 -28.7 13.5 -42.5 3.2 -12.8 7.9 -39 7.1 -39 -3.6 0 -35.6 17.1 -45.9 24.5 -16.1 11.6 -39.7 32.4 -39.7 35.1 0 1.6 -3.7 2.7 -7.1 2.2 -2.2 -0.3 -2.4 -0.7 -2.1 -4.8 0.2 -2.5 0.4 -18 0.5 -34.5 0.1 -23.5 -0.2 -32.9 -1.6 -43.5 -2.9 -22.5 -9 -52.3 -11.6 -56.8 -0.6 -1 -1.1 -1.2 -1.1 -0.4 0 0.6 -0.6 1.2 -1.3 1.2 -0.8 0 -1.9 1.1 -2.5 2.4 -0.6 1.3 -2.3 3 -3.8 3.8 -1.6 0.7 -3.7 3 -4.8 5.1 -1.1 2 -2.6 3.7 -3.4 3.7 -0.7 0 -1.6 0.9 -1.9 2 -0.3 1 -1.6 2.6 -2.9 3.5 -1.3 0.8 -2.4 2.4 -2.4 3.5 0 1.1 -0.7 2 -1.5 2 -0.8 0 -1.5 0.6 -1.5 1.4 0 0.8 -0.7 1.6 -1.5 2 -0.8 0.3 -1.5 1.1 -1.5 1.8 0 0.7 -0.9 1.9 -2 2.6 -1.1 0.7 -2 1.9 -2 2.7 0 1.3 -8.5 15.3 -10 16.5 -0.3 0.3 -1.2 2 -1.9 3.8 -0.8 1.7 -1.7 3.2 -2.2 3.2 -0.5 0 -0.9 0.6 -0.9 1.3 0 0.8 -0.9 2.4 -2 3.7 -1.1 1.3 -2 3.1 -2 4.1 0 2.3 -4.1 10.9 -5.2 10.9 -0.4 0 -0.8 0.9 -0.8 2 0 1.9 -1.9 7 -3 8 -0.3 0.3 -1.1 2.7 -1.8 5.3 -0.7 2.7 -1.9 5.5 -2.6 6.3 -0.8 0.7 -2 3.6 -2.7 6.4 -1.3 5 -1.4 5.1 -4.7 4.8 -3.4 -0.3 -3.5 -0.5 -6.8 -9.8 -1.9 -5.2 -3.8 -10.4 -4.3 -11.5 -0.5 -1.1 -1.9 -4.7 -3.2 -8 -4.4 -11.8 -20.1 -40.6 -24.6 -45.3 -0.7 -0.8 -1.8 -2.3 -2.5 -3.5 -1 -1.9 -9.6 -13.3 -12.3 -16.3 -0.5 -0.7 -3.7 -4.3 -7 -8 -9.8 -11.2 -12.6 -13.8 -13.6 -12.3 -0.4 0.7 -1.6 4.5 -2.5 8.4 -0.9 3.8 -2.1 7.2 -2.5 7.6 -0.5 0.3 -1.3 4.8 -1.9 10 -0.6 5.1 -1.3 11.9 -1.7 14.9 -0.3 3 -1 5.8 -1.6 6.1 -0.5 0.4 -0.9 4.9 -0.9 10.3 0.1 5.3 -0.3 9.6 -0.7 9.6 -1 0 -0.6 56.2 0.4 63.8 0.4 2.8 1.1 5.2 1.6 5.2 0.5 0 0.9 1.6 0.9 3.5 0 3.4 -0.1 3.5 -4.2 3.5 -4 0 -4.7 -0.5 -15.2 -10.9 -14.6 -14.4 -23.4 -21.6 -38.6 -31.6 -12.4 -8.1 -34.6 -20.5 -36.8 -20.5 -0.8 0 -1.2 2 -1.2 5.5 0 3 0.5 5.5 1 5.5 0.6 0 1 2.3 1 5 0 2.8 0.5 5 1 5 0.6 0 1 2.2 1 4.9 0 2.7 0.4 5.1 0.8 5.3 1 0.4 5.2 16.7 5.2 20.2 0 1.3 0.4 2.6 0.8 2.8 1 0.4 9.2 24.6 9.2 27.1 0 0.9 0.5 1.7 1 1.7 0.6 0 1.5 2 2.2 4.5 0.7 2.5 1.6 4.5 2 4.5 0.4 0 0.8 1.1 0.8 2.5 0 1.4 0.4 2.5 0.8 2.5 0.9 0 6.2 10.9 6.2 12.8 0 0.7 0.4 1.2 1 1.2 0.5 0 1.3 1.2 1.6 2.7 0.4 1.5 1.3 3.4 2.1 4.1 0.7 0.7 1.6 2.5 2 4 0.3 1.5 0.9 2.9 1.4 3.2 0.4 0.3 4.4 6.5 8.8 13.8 36.1 59.1 78.3 108.9 122.1 144 8.5 6.8 6.7 7.2 20.5 -4.1z"/>
 </g>
 <g fill="#075051">
  <path d="M475.5 672.8 c-27.5 -42 -61 -77.4 -92.7 -97.8 -3.4 -2.2 -7.3 -5.7 -8.7 -7.8 -1.3 -2 -3.1 -4.3 -3.8 -5 -0.7 -0.8 -1.1 -1.8 -0.8 -2.3 0.4 -0.5 0.1 -0.9 -0.5 -0.9 -0.6 0 -0.8 -0.4 -0.5 -1 0.3 -0.5 0.1 -1 -0.5 -1 -0.6 0 -0.8 -0.4 -0.5 -1 0.3 -0.5 0.1 -1 -0.4 -1 -0.6 0 -1.1 -0.9 -1.1 -2 0 -1.1 -0.5 -2 -1.1 -2 -0.5 0 -0.8 -0.4 -0.5 -0.9 0.3 -0.5 -0.1 -1.2 -1 -1.5 -0.9 -0.4 -1.4 -1.3 -1 -2.1 0.3 -0.9 -0.1 -1.8 -1 -2.2 -0.8 -0.3 -1.3 -1.2 -1 -1.9 0.3 -0.8 0.1 -1.4 -0.5 -1.4 -0.6 0 -0.7 -0.4 -0.4 -1 0.3 -0.5 0.1 -1 -0.5 -1 -0.6 0 -0.8 -0.4 -0.5 -1 0.3 -0.5 0.1 -1 -0.6 -1 -0.7 0 -1 -0.3 -0.6 -0.6 0.3 -0.4 -0.1 -1.3 -0.9 -2.1 -0.8 -0.9 -1.3 -2 -1.1 -2.7 0.2 -0.6 -0.2 -1.7 -1 -2.4 -0.7 -0.8 -1.1 -1.8 -0.8 -2.3 0.4 -0.5 0.1 -0.9 -0.5 -0.9 -0.7 0 -1 -0.7 -0.6 -1.5 0.3 -0.8 0.1 -1.5 -0.5 -1.5 -0.6 0 -0.8 -0.4 -0.5 -0.9 0.4 -0.5 0.1 -1.1 -0.4 -1.3 -0.6 -0.2 -1.2 -1.3 -1.3 -2.6 0 -1.2 -0.5 -2.2 -1 -2.2 -0.5 0 -0.7 -0.7 -0.3 -1.5 0.3 -0.8 0.1 -1.5 -0.4 -1.5 -0.5 0 -0.7 -0.7 -0.4 -1.5 0.4 -0.8 0.1 -1.5 -0.6 -1.5 -0.7 0 -1 -0.7 -0.6 -1.5 0.3 -0.8 0.1 -1.5 -0.4 -1.5 -0.5 0 -0.7 -0.7 -0.4 -1.5 0.4 -0.8 0.1 -1.5 -0.5 -1.5 -0.6 0 -0.8 -0.7 -0.5 -1.5 0.4 -0.8 0.1 -1.5 -0.6 -1.5 -0.6 0 -0.8 -0.4 -0.5 -1 0.3 -0.5 0.1 -1 -0.6 -1 -0.6 0 -0.9 -0.8 -0.6 -2 0.3 -1.1 0.1 -2 -0.5 -2 -0.6 0 -0.8 -0.6 -0.5 -1.4 0.3 -0.8 0.2 -1.6 -0.4 -1.8 -0.5 -0.2 -1 -1.8 -1.2 -3.6 -0.1 -1.7 -0.6 -3.2 -1.1 -3.2 -0.4 0 -0.6 -0.9 -0.3 -2 0.3 -1.1 0.1 -2 -0.5 -2 -0.5 0 -0.6 -0.9 -0.3 -2 0.4 -1.2 0.2 -2 -0.5 -2 -0.7 0 -1 -0.8 -0.7 -2 0.3 -1.1 0.1 -2 -0.5 -2 -0.6 0 -0.8 -0.9 -0.5 -2 0.3 -1 0.1 -2 -0.4 -2.2 -0.4 -0.2 -0.9 -2.3 -1.1 -4.8 -0.2 -2.5 -0.6 -4.7 -1 -5 -0.4 -0.3 -0.8 -2.6 -1 -5 -0.2 -2.5 -0.7 -4.8 -1.1 -5.1 -0.5 -0.3 -0.9 -3.6 -0.9 -7.3 -0.1 -3.6 -0.5 -6.6 -1 -6.6 -1.6 0 -0.8 -4.8 0.9 -5.4 2.5 -1 28.4 12.4 44.2 22.9 15.3 10.1 27.3 19.9 40.6 33.4 5 5 9.7 9.1 10.5 9.1 1.1 0 1.2 -0.2 0.3 -0.8 -1.9 -1.2 -4.9 -42.2 -3.2 -42.2 0.4 0 0.7 -1.6 0.6 -3.5 -0.1 -1.9 -0.5 -3.5 -1 -3.5 -0.4 0 -0.5 -0.5 -0.1 -1.2 0.4 -0.6 0.6 -6.4 0.5 -13 -0.1 -6.5 0.1 -11.8 0.6 -11.8 0.4 0 0.8 -4.3 0.9 -9.6 0 -6.3 0.5 -9.8 1.3 -10.3 0.8 -0.5 1 -2.1 0.5 -4.9 -0.4 -2.5 -0.3 -4.2 0.3 -4.2 0.5 0 0.8 -1.4 0.5 -3 -0.2 -1.8 0 -3 0.7 -3 0.6 0 0.8 -0.7 0.5 -1.5 -0.7 -1.8 1.7 -14.5 2.7 -14.5 0.4 0 0.5 -0.9 0.2 -2 -0.3 -1.1 -0.1 -2 0.5 -2 0.6 0 0.8 -0.9 0.5 -2 -0.3 -1.1 -0.1 -2 0.5 -2 0.6 0 0.8 -0.9 0.5 -2 -0.3 -1.1 0 -2 0.6 -2 0.5 0 0.8 -0.7 0.5 -1.5 -0.4 -0.8 -0.2 -1.5 0.4 -1.5 0.6 0 0.8 -0.8 0.6 -1.7 -0.2 -1 0 -2.4 0.5 -3.2 0.8 -1.2 1.3 -1.2 3.3 0.1 3.3 2.2 9.3 8.2 16.3 16.2 3.3 3.7 6.5 7.3 7 8 2.7 3 11.3 14.4 12.3 16.3 0.7 1.2 1.8 2.7 2.5 3.5 5.3 5.5 24.7 42.1 27.1 51.3 0.2 0.6 0.6 1.7 0.9 2.5 0.4 0.8 2 5.3 3.7 10 1.7 4.7 3.3 9.2 3.6 10 0.3 0.9 1.4 -1.1 2.5 -4.7 1.1 -3.5 2.5 -6.3 3 -6.3 0.6 0 0.9 -0.7 0.5 -1.5 -0.3 -0.8 -0.1 -1.5 0.4 -1.5 0.5 0 0.7 -0.7 0.4 -1.5 -0.4 -0.8 -0.1 -1.5 0.5 -1.5 0.6 0 0.8 -0.6 0.5 -1.4 -0.3 -0.7 0.1 -2 0.9 -2.7 0.7 -0.8 1.2 -2 0.9 -2.7 -0.2 -0.6 0.1 -1.2 0.8 -1.2 0.6 0 0.8 -0.4 0.5 -1 -0.3 -0.5 -0.2 -1 0.4 -1 0.6 0 0.8 -0.6 0.5 -1.4 -0.3 -0.7 0.2 -2 1 -2.9 0.8 -0.8 1.2 -1.7 0.9 -2.1 -0.4 -0.3 -0.1 -0.6 0.6 -0.6 0.7 0 0.9 -0.4 0.6 -1 -0.3 -0.5 -0.1 -1 0.5 -1 0.6 0 0.8 -0.4 0.5 -1 -0.3 -0.5 -0.1 -1 0.5 -1 0.6 0 0.8 -0.4 0.5 -1 -0.3 -0.5 -0.1 -1 0.5 -1 0.6 0 0.9 -0.4 0.5 -0.9 -0.7 -1.2 1.5 -6.1 2.7 -6.1 0.5 0 0.6 -0.4 0.3 -1 -0.3 -0.5 -0.1 -1 0.5 -1 0.6 0 0.8 -0.5 0.5 -1 -0.3 -0.6 0.1 -1.3 0.9 -1.6 0.9 -0.3 1.3 -1 1 -1.5 -0.3 -0.5 0 -0.9 0.6 -0.9 0.6 0 0.8 -0.4 0.5 -1 -0.3 -0.5 -0.1 -1 0.5 -1 0.6 0 0.8 -0.5 0.5 -1 -0.3 -0.6 0.1 -1.3 0.9 -1.6 0.9 -0.3 1.4 -1 1.1 -1.4 -0.3 -0.4 0.2 -1.1 1.1 -1.4 0.8 -0.3 1.2 -1 0.9 -1.6 -0.3 -0.5 -0.1 -1 0.5 -1 0.6 0 0.9 -0.4 0.6 -0.9 -0.3 -0.5 0.1 -1.2 1 -1.5 0.8 -0.3 1.3 -1 1 -1.5 -0.3 -0.5 0.1 -1.2 1 -1.5 0.8 -0.3 1.3 -1 1 -1.5 -0.3 -0.5 0.1 -1.2 1 -1.5 0.8 -0.3 1.2 -1 0.9 -1.6 -0.3 -0.5 0.5 -2.1 1.9 -3.5 1.4 -1.4 2.2 -2.5 1.8 -2.5 -0.4 -0.1 0.3 -0.9 1.5 -1.9 1.2 -1 1.9 -2.2 1.6 -2.5 -0.4 -0.4 0.3 -0.9 1.6 -1.3 1.3 -0.3 2 -1.1 1.7 -1.9 -0.3 -0.7 0.7 -2.3 2.2 -3.5 1.5 -1.1 2.7 -2.6 2.7 -3.1 0 -0.6 0.9 -1.6 2 -2.2 2.1 -1.1 3.8 -3.2 3.3 -4 -0.5 -0.8 4.5 -5.6 5.9 -5.6 0.8 0 2.2 -1.3 3.1 -3 0.9 -1.6 2.3 -3 3 -3 0.7 0 1.1 -0.4 0.8 -0.9 -0.3 -0.4 0.6 -1.3 2 -2 1.4 -0.6 2.2 -1.6 1.9 -2.1 -0.3 -0.6 0 -1 0.8 -1 2.9 0 10.6 32 13.7 57 3 24 4.1 65.7 2.2 80.8 -0.5 3.4 -0.6 6.4 -0.4 6.6 0.7 0.8 3.2 -0.6 2.7 -1.4 -1 -1.7 24.4 -24.1 40.2 -35.5 13.9 -10 49.4 -27.8 52.1 -26.1 0.9 0.5 0.8 1.7 -1.4 16.6 -3.4 23.3 -10.3 49.2 -19.4 72.5 -5.5 14.1 -19.6 43.5 -20.9 43.5 -0.6 0 -0.8 0.6 -0.5 1.3 0.6 1.8 -2.2 4.2 -15.6 13.2 -27.1 18.2 -49.6 40.2 -73.1 71.5 -5.2 6.9 -11.2 15.3 -13.4 18.8 -3.6 5.5 -4.4 6.2 -7.2 6.2 -3.2 0 -3.3 -0.2 -3.3 -3.9 0 -2.8 2.9 -9.7 11.4 -27.2 17.3 -35.6 26.5 -59.7 34.2 -89.8 3.4 -13.4 8.8 -42.4 8.2 -44.3 -0.4 -1 -6.1 6.1 -16.1 20 -14.8 20.4 -28.4 46.9 -38.2 74.6 -3.8 10.7 -11.3 36.1 -12.9 43.9 -0.6 2.3 -1.1 2.7 -4.3 2.7 -3.6 0 -3.6 0 -2.9 -10.2 0.3 -5.7 1.1 -14.8 1.6 -20.3 1.3 -13.5 1.2 -63.2 0 -77.5 -1.3 -14.5 -4.4 -33.3 -7.6 -47.3 -2.5 -10.4 -3.6 -12.2 -4.7 -7.5 -8.9 40.3 -10.2 52.6 -10.2 93.8 0.1 28.4 0.8 44.3 3.2 64.8 0.6 5.2 0.6 5.2 -3.5 5.2 -3.5 0 -4.2 -0.4 -4.7 -2.2 -7.8 -34.2 -21.2 -70.6 -34.7 -94.3 -9.2 -16.3 -29.1 -44.5 -30.5 -43.1 -1.1 1.1 5.6 35.9 9.9 51.1 8.5 30.1 18.1 54.1 36.2 90.3 13 26.1 14.2 30.2 8.4 30.2 -3 -0.1 -3.8 -0.8 -9.3 -9.2z"/>
  <path d="M328.2 407 c0 -1.9 0.2 -2.7 0.5 -1.7 0.2 0.9 0.2 2.5 0 3.5 -0.3 0.9 -0.5 0.1 -0.5 -1.8z"/>
  <path d="M698.4 397 c0 -5.8 0.1 -8.1 0.3 -5.2 0.2 2.8 0.2 7.6 0 10.5 -0.2 2.8 -0.3 0.5 -0.3 -5.3z"/>
 </g>
 <g fill="#094143">
  <path d="M503.3 721.8 c-37.4 -29.4 -75.4 -72 -107.9 -120.8 -9.3 -13.9 -22.4 -35.2 -22.4 -36.4 0 -1.1 15.8 9.1 25.6 16.4 27.8 21 53.9 49.9 79.7 88.4 3.7 5.5 6.7 9.6 6.7 9.3 0 -0.4 -5.2 -11.1 -11.6 -23.9 -26.5 -53 -39 -90 -45.4 -134.8 -2.9 -20.9 -2.9 -21 -2.1 -21 3.4 0 26.6 31.5 37.9 51.5 13.5 23.7 26.9 60.1 34.7 94.3 0.3 1.2 1 2.2 1.6 2.2 0.6 0 0.8 -0.3 0.6 -0.7 -0.6 -1 -1.2 -8.3 -2.8 -32.3 -2 -31 -0.3 -77.1 3.6 -100.7 2.7 -15.9 8.8 -40.9 10.4 -42.6 0.5 -0.5 1.3 0.9 1.9 3 0.5 2.1 2.1 8.1 3.6 13.3 6.9 25.6 9.8 53.8 9.7 93.7 -0.1 26 -0.6 36.5 -2.7 59.3 -0.4 3.6 -0.4 6.3 -0.1 6 0.4 -0.4 2 -6 3.7 -12.5 11.8 -45.8 31.5 -87.6 55.9 -118.5 15.1 -19.2 17.6 -21.3 16.6 -14.2 -4.2 29.4 -6.2 40.5 -10.6 57.2 -7.6 28.6 -16.7 52.3 -33.5 86.9 -6.3 12.9 -11.4 23.8 -11.4 24.4 0 0.6 3.2 -3.7 7.1 -9.4 19.7 -28.7 43.7 -55.5 65.5 -73.1 14.9 -12.1 36.4 -25.3 36.4 -22.4 0 0.8 -18 29.6 -24.8 39.8 -29 43.2 -67.4 85.7 -104.7 115.7 -5.5 4.4 -10.8 8.1 -11.7 8.1 -0.9 0 -5.2 -2.8 -9.5 -6.2z"/>
  <path d="M698.3 386 c0 -2.5 0.2 -3.5 0.4 -2.2 0.2 1.2 0.2 3.2 0 4.5 -0.2 1.2 -0.4 0.2 -0.4 -2.3z"/>
 </g>
</svg>